<svg width="32" height="28" viewBox="0 0 32 28" fill="none" xmlns="http://www.w3.org/2000/svg">
  <path d="M31.144 5.84244L17.3468 27.1579C17.1784 27.4166 16.9451 27.6296 16.6686 27.7768C16.3922 27.9241 16.0817 28.0009 15.7664 28C15.451 27.9991 15.141 27.9205 14.8655 27.7716C14.59 27.6227 14.3579 27.4084 14.1911 27.1487L0.664576 5.83477C0.285316 5.23695 0.0852825 4.54843 0.0869241 3.84647C0.104421 2.81116 0.544438 1.82485 1.31047 1.10385C2.0765 0.382844 3.10602 -0.0139909 4.17322 0.000376986H27.6718C29.9143 0.000376986 31.7391 1.71538 31.7391 3.83879C31.7391 4.54199 31.5333 5.23751 31.1424 5.84244M3.98489 5.13003L14.0503 20.1858V3.61156H5.03732C3.99597 3.61156 3.5291 4.28098 3.98647 5.13003M17.7742 20.1858L27.8395 5.13003C28.3032 4.28098 27.8285 3.61156 26.7871 3.61156H17.7742V20.1858Z" fill="white"/>
</svg>